# AST/ASF file generated using VICON BodyLanguage
# -----------------------------------------------
:version 1.10
:name VICON
:units
  mass 1.0
  length 0.45
  angle deg
:documentation
   .ast/.asf automatically generated from VICON data using
   VICON BodyBuilder and BodyLanguage model FoxedUp or BRILLIANT.MOD
:root
   order TX TY TZ RX RY RZ
   axis XYZ
   position 0 0 0  
   orientation 0 0 0 
:bonedata
  begin
     id 1 
     name lhipjoint
     direction 0.547975 -0.797114 0.253638 
     length 2.36201 
     axis 0 0 0  XYZ
  end
  begin
     id 2 
     name lfemur
     direction 0.34202 -0.939693 0  
     length 7.69075  
     axis 0 0 20  XYZ
    dof rx ry rz
    limits (-160.0 20.0)
           (-70.0 70.0)
           (-60.0 70.0)
  end
  begin
     id 3 
     name ltibia
     direction 0.34202 -0.939693 0   
     length 7.91399   
     axis 0 0 20   XYZ
    dof rx
    limits (-10.0 170.0)
  end
  begin
     id 4 
     name lfoot
     direction 0.0705293 -0.193778 0.978507   
     length 2.13618   
     axis -90 7.62852e-016 20   XYZ
    dof rx rz
    limits (-45.0 90.0)
           (-70.0 20.0)
  end
  begin
     id 5 
     name ltoes
     direction 1.53592e-011 -4.21925e-011 1   
     length 1.07518   
     axis -90 7.62852e-016 20   XYZ
    dof rx
    limits (-90.0 20.0)
  end
  begin
     id 6 
     name rhipjoint
     direction -0.57 -0.782963 0.249136   
     length 2.4047  
     axis 0 0 0  XYZ 
  end
  begin
     id 7 
     name rfemur
     direction -0.34202 -0.939693 0   
     length 7.51486   
     axis 0 0 -20   XYZ
    dof rx ry rz
    limits (-160.0 20.0)
           (-70.0 70.0)
           (-70.0 60.0)
  end
  begin
     id 8 
     name rtibia
     direction -0.34202 -0.939693 0   
     length 8.08317   
     axis 0 0 -20   XYZ
    dof rx
    limits (-10.0 170.0)
 end
 begin
     id 9 
     name rfoot
     direction -0.104954 -0.281256 0.953876   
     length 2.30343  
     axis -90 -7.62852e-016 -20   XYZ
    dof rx rz
    limits (-45.0 90.0)
           (-20.0 70.0)
  end
  begin
     id 10 
     name rtoes
     direction -1.53556e-011 -4.21922e-011 1   
     length 1.14803   
     axis -90 -7.62852e-016 -20   XYZ
    dof rx
    limits (-90.0 20.0)
  end
  begin
     id 11 
     name lowerback
     direction -0.0152855 0.99353 -0.11254   
     length 2.05311   
     axis 0 0 0   XYZ
    dof rx ry rz
    limits (-20.0 45.0)
           (-30.0 30.0)
           (-30.0 30.0)
  end
  begin
     id 12 
     name upperback
     direction -0.00157509 0.999443 -0.033332   
     length 2.06353   
     axis 0 0 0   XYZ
    dof rx ry rz
    limits (-20.0 45.0)
           (-30.0 30.0)
           (-30.0 30.0)
  end
  begin
     id 13 
     name thorax
     direction 0.00577788 0.999804 0.0189484   
     length 2.08472   
     axis 0 0 0   XYZ
    dof rx ry rz
    limits (-20.0 45.0)
           (-30.0 30.0)
           (-30.0 30.0)
  end
  begin
     id 14 
     name lowerneck
     direction -1.09301e-005 0.994719 0.10264   
     length 1.76249   
     axis 0 0 0   XYZ
    dof rx ry rz
    limits (-20.0 45.0)
           (-30.0 30.0)
           (-30.0 30.0)
  end
  begin
     id 15 
     name upperneck
     direction 0.0495018 0.988526 -0.142706   
     length 1.77897   
     axis 0 0 0   XYZ
    dof rx ry rz
    limits (-20.0 45.0)
           (-30.0 30.0)
           (-30.0 30.0)
  end
  begin
     id 16
     name head
     direction 0.0142736 0.998114 -0.0597101  
     length 1.78934  
     axis 0 0 0   XYZ
    dof rx ry rz
    limits (-20.0 45.0)
           (-30.0 30.0)
           (-30.0 30.0)
  end
  begin
     id 17 
     name lclavicle
     direction 0.918111 0.396107 -0.0130883  
     length 3.37276  
     axis 0 0 0   XYZ
    dof ry rz
    limits (-20.0 10.0)
           (0.0 20.0)
  end
  begin
     id 18 
     name lhumerus
     direction 1 -4.48975e-011 -3.26108e-027   
     length 5.34298   
     axis 180 -30 -90   XYZ
    dof rx ry rz
    limits (-60.0 90.0)
           (-90.0 90.0)
           (-90.0 90.0)
  end
  begin
     id 19
     name lradius
     direction 1 -4.48964e-011 -8.84413e-028   
     length 3.67262   
     axis 180 -30 -90   XYZ
    dof rx
    limits (-10.0 170.0)
  end
  begin
     id 20
     name lwrist
     direction 1 -4.48991e-011 -1.24264e-027   
     length 1.83631   
     axis -2.17013e-015 90 90   XYZ
    dof ry
    limits (-180.0 0.0)
 end
  begin
     id 21 
     name lhand
     direction 1 -4.48855e-011 -2.48528e-027   
     length 0.599298   
     axis 1.58582e-015 90 90   XYZ
    dof rx rz
    limits (-90.0 90.0)
           (-45.0 45.0)
  end
  begin
     id 22 
     name lfingers
     direction 1 -4.48811e-011 -4.97056e-027   
     length 0.48317   
     axis 3.17164e-015 90 90   XYZ
    dof rx
    limits (0.0 90.0)
  end
  begin
     id 23
     name lthumb
     direction 0.707107 -6.34882e-011 0.707107   
     length 0.693738   
     axis -90 45 2.85299e-015   XYZ
    dof rx rz
    limits (-45.0 45.0)
           (-45.0 45.0)
  end
  begin
     id 24 
     name rclavicle
     direction -0.920511 0.384752 -0.0680135   
     length 3.43787  
     axis 0 0 0   XYZ 
    dof ry rz
    limits (-10.0 20.0)
           (-20.0 0.0)
  end
  begin
     id 25 
     name rhumerus
     direction -0.999976 -0.00330524 0.00603274  
     length 5.5498   
     axis 180 30 90   XYZ
    dof rx ry rz
    limits (-90.0 60.0)
           (-90.0 90.0)
           (-90.0 90.0)
  end
  begin
     id 26 
     name rradius
     direction -1 -4.48967e-011 8.62438e-027   
     length 3.69401   
     axis 180 30 90   XYZ
    dof rx
    limits (-10.0 170.0)
  end
  begin
     id 27 
     name rwrist
     direction -1 -4.4897e-011 9.54866e-027   
     length 1.84701   
     axis -7.69462e-015 -90 -90   XYZ
    dof ry
    limits (-180.0 0.0)
  end
  begin
     id 28
     name rhand
     direction -1 -4.48982e-011 1.90973e-026   
     length 0.638113   
     axis -1.21857e-014 -90 -90   XYZ
    dof rx rz
    limits (-90.0 90.0)
           (-45.0 45.0)
  end
  begin
     id 29
     name rfingers
     direction -1 -4.48936e-011 3.81946e-026   
     length 0.514463   
     axis -2.43714e-014 -90 -90   XYZ
    dof rx
    limits (0.0 90.0)
  end
  begin
     id 30
     name rthumb
     direction -0.707107 -6.34942e-011 0.707107   
     length 0.738669   
     axis -90 -45 -2.85299e-015   XYZ
    dof rx rz
    limits (-45.0 45.0)
           (-45.0 45.0)
  end
:hierarchy
  begin
    root lhipjoint rhipjoint lowerback
    lhipjoint lfemur
    lfemur ltibia
    ltibia lfoot
    lfoot ltoes
    rhipjoint rfemur
    rfemur rtibia
    rtibia rfoot
    rfoot rtoes
    lowerback upperback
    upperback thorax
    thorax lowerneck lclavicle rclavicle
    lowerneck upperneck
    upperneck head
    lclavicle lhumerus
    lhumerus lradius
    lradius lwrist
    lwrist lhand lthumb
    lhand lfingers
    rclavicle rhumerus
    rhumerus rradius
    rradius rwrist
    rwrist rhand rthumb
    rhand rfingers
  end

#!OML:ASF F:\twosubjects\two\Thursday\Session 1\Rory.ASF
:FULLY-SPECIFIED
:DEGREES
199
root 13.4828 18.7656 5.69291 211.151 -85.8469 -203.641
lowerback 0.113056 -2.59911 -3.64893
upperback -0.805583 -3.50872 -0.917199
thorax -0.729131 -1.73935 1.12081
lowerneck -1.24072 -15.3939 -14.7959
upperneck 8.3741 -23.4279 21.6002
head 7.15369 -11.3468 6.9513
rclavicle -2.60905e-014 -6.75868e-015
rhumerus -39.1319 -17.3557 -68.5952
rradius 38.3646
rwrist 17.619
rhand -27.2959 33.4485
rfingers 7.12502
rthumb -0.705856 3.46996
lclavicle -2.60905e-014 -6.75868e-015
lhumerus -42.4065 21.9808 63.5854
lradius 36.3491
lwrist -20.6349
lhand -13.7308 26.5339
lfingers 7.12502
lthumb 12.3887 56.1468
rfemur -6.32315 11.7427 11.7754
rtibia 11.6678
rfoot -10.3828 -12.6599
rtoes -4.28911
lfemur -4.5574 4.61904 -20.0172
ltibia 13.7868
lfoot -14.9611 4.87136
ltoes 15.1282
200
root 13.4868 18.7664 5.6951 213.29 -85.7445 -205.787
lowerback 0.170202 -2.60287 -3.8307
upperback -0.921882 -3.52241 -0.914572
thorax -0.869158 -1.74167 1.23079
lowerneck -1.43124 -15.0936 -14.4698
upperneck 8.60858 -22.9437 21.1464
head 7.06502 -11.0987 6.83494
rclavicle 6.36608e-014 1.35174e-014
rhumerus -39.3867 -17.6345 -68.4484
rradius 38.3676
rwrist 17.8814
rhand -26.9994 34.2345
rfingers 7.12502
rthumb -0.419545 4.25519
lclavicle 6.36608e-014 1.35174e-014
lhumerus -42.3798 22.0286 63.6131
lradius 36.2552
lwrist -20.5132
lhand -13.7684 26.2555
lfingers 7.12502
lthumb 12.3524 55.8706
rfemur -6.16807 11.8973 11.5346
rtibia 11.3136
rfoot -10.3234 -12.7035
rtoes -3.2719
lfemur -4.50588 4.17345 -20.213
ltibia 13.7055
lfoot -14.8258 5.21978
ltoes 12.6731
201
root 13.4884 18.7665 5.69383 213.514 -85.6518 -205.98
lowerback 0.135136 -2.55228 -3.87206
upperback -0.987486 -3.4562 -0.914392
thorax -0.917764 -1.70693 1.25401
lowerneck -1.77504 -14.8588 -14.0394
upperneck 8.82892 -22.5219 20.6201
head 6.99294 -10.8694 6.65461
rclavicle 2.49972e-014 -7.15625e-015
rhumerus -39.5197 -17.8573 -68.4008
rradius 38.1998
rwrist 17.9072
rhand -26.7604 34.1069
rfingers 7.12502
rthumb -0.188672 4.12723
lclavicle 2.49972e-014 -7.15625e-015
lhumerus -42.1832 21.97 63.7567
lradius 36.1394
lwrist -20.3755
lhand -13.5973 25.7399
lfingers 7.12502
lthumb 12.5174 55.345
rfemur -6.12838 11.9936 11.4473
rtibia 11.1118
rfoot -10.1675 -12.6719
rtoes -2.84293
lfemur -4.44398 3.83146 -20.2842
ltibia 13.5302
lfoot -14.8558 5.76565
ltoes 10.0279
202
root 13.4813 18.7684 5.69919 211.257 -85.761 -203.689
lowerback -0.0128307 -2.48475 -3.41203
upperback -1.0379 -3.35801 -0.9477
thorax -0.91909 -1.66134 0.958833
lowerneck -2.1888 -14.5245 -13.6768
upperneck 9.20212 -22.0286 20.2775
head 7.00547 -10.5957 6.54604
rclavicle 1.54058e-015 5.56597e-015
rhumerus -39.6069 -18.2746 -68.2939
rradius 37.7525
rwrist 18.1379
rhand -26.7032 33.5421
rfingers 7.12502
rthumb -0.133383 3.56236
lclavicle 1.54058e-015 5.56597e-015
lhumerus -41.9617 21.7222 63.9649
lradius 36.061
lwrist -20.3781
lhand -13.6139 25.8455
lfingers 7.12502
lthumb 12.5014 55.4516
rfemur -6.15216 11.9165 11.6449
rtibia 11.1606
rfoot -10.2844 -12.5371
rtoes -2.23969
lfemur -4.27593 3.71198 -20.0867
ltibia 13.2257
lfoot -14.7172 5.89959
ltoes 10.696
203
root 13.4747 18.7678 5.7026 210.459 -85.7489 -202.798
lowerback -0.242647 -2.47843 -3.22342
upperback -1.066 -3.33837 -0.887601
thorax -0.826839 -1.65376 0.905135
lowerneck -2.79815 -14.0892 -13.5326
upperneck 9.69407 -21.3845 19.9661
head 7.0957 -10.2373 6.48567
rclavicle 1.21259e-014 6.75868e-015
rhumerus -39.4002 -18.5712 -68.119
rradius 37.1754
rwrist 18.5246
rhand -26.6346 33.8674
rfingers 7.12502
rthumb -0.067202 3.88762
lclavicle 1.21259e-014 6.75868e-015
lhumerus -41.815 21.9887 64.0913
lradius 35.8635
lwrist -20.5853
lhand -13.9024 25.9669
lfingers 7.12502
lthumb 12.2232 55.5898
rfemur -6.21241 11.7202 11.6752
rtibia 11.0758
rfoot -10.105 -12.3396
rtoes -3.03366
lfemur -4.26136 3.90423 -20.08
ltibia 12.9823
lfoot -14.3965 5.98574
ltoes 9.43468
204
root 13.4711 18.7681 5.69917 211.239 -85.4958 -203.435
lowerback -0.527171 -2.45003 -3.49588
upperback -1.10431 -3.28844 -0.760773
thorax -0.686391 -1.62792 1.17337
lowerneck -3.23539 -13.7382 -13.4794
upperneck 9.96604 -20.7967 19.5568
head 7.09725 -9.92871 6.41092
rclavicle 3.84897e-014 -3.77691e-014
rhumerus -39.0921 -18.4632 -68.0442
rradius 36.7173
rwrist 18.6633
rhand -26.4488 34.2534
rfingers 7.12502
rthumb 0.112283 4.27369
lclavicle 3.84897e-014 -3.77691e-014
lhumerus -41.6543 22.5066 64.2318
lradius 35.5026
lwrist -20.8309
lhand -14.2143 25.6034
lfingers 7.12502
lthumb 11.9224 55.2439
rfemur -6.37008 11.7618 11.4508
rtibia 10.9509
rfoot -9.84905 -12.2522
rtoes -3.83337
lfemur -4.32319 3.97184 -20.3068
ltibia 12.7784
lfoot -14.2309 6.31017
ltoes 8.20884
205
root 13.4649 18.7814 5.69437 210.521 -85.2369 -202.653
lowerback -0.734021 -2.35002 -3.61189
upperback -1.18259 -3.14833 -0.716987
thorax -0.648784 -1.55701 1.27598
lowerneck -3.38252 -13.406 -13.3014
upperneck 10.1227 -20.2598 19.15
head 7.01019 -9.66582 6.33172
rclavicle -4.14963e-015 -7.55382e-015
rhumerus -39.1853 -18.6004 -68.0132
rradius 36.4724
rwrist 18.6254
rhand -26.4112 34.5407
rfingers 7.12502
rthumb 0.148582 4.56097
lclavicle -4.14963e-015 -7.55382e-015
lhumerus -41.5168 22.5708 64.3785
lradius 35.1925
lwrist -20.8874
lhand -13.9428 25.0746
lfingers 7.12502
lthumb 12.1842 54.6997
rfemur -6.55829 11.9871 11.36
rtibia 11.0934
rfoot -9.88262 -12.2958
rtoes -3.90729
lfemur -4.01127 2.91221 -20.3348
ltibia 12.4348
lfoot -14.7739 6.83415
ltoes 13.8408
206
root 13.4588 18.7905 5.69297 211.112 -85.1489 -203.313
lowerback -0.742158 -2.27536 -3.64537
upperback -1.23345 -3.05064 -0.731874
thorax -0.700312 -1.50688 1.28115
lowerneck -3.60547 -13.0357 -13.2418
upperneck 10.4053 -19.7191 18.9233
head 7.01226 -9.39126 6.32028
rclavicle -3.8763e-014 -2.78299e-014
rhumerus -39.569 -19.1361 -67.802
rradius 36.3971
rwrist 19.0863
rhand -26.6439 34.4122
rfingers 7.12502
rthumb -0.0761503 4.4325
lclavicle -3.8763e-014 -2.78299e-014
lhumerus -41.4319 22.3784 64.6265
lradius 35.1043
lwrist -20.8337
lhand -13.1886 24.6059
lfingers 7.12502
lthumb 12.9114 54.1864
rfemur -6.56574 12.0311 11.2965
rtibia 11.2862
rfoot -9.93936 -12.3834
rtoes -4.54756
lfemur -3.59387 1.44737 -20.4188
ltibia 12.1158
lfoot -15.5782 7.78969
ltoes 17.4944
207
root 13.4573 18.7878 5.68752 210.95 -85.016 -203.171
lowerback -0.757759 -2.17157 -3.76407
upperback -1.25913 -2.91093 -0.645228
thorax -0.714538 -1.43492 1.43679
lowerneck -3.98576 -12.6737 -13.3218
upperneck 10.7624 -19.1766 18.7237
head 7.08426 -9.10679 6.32638
rclavicle -1.3418e-015 -1.63003e-014
rhumerus -39.7485 -19.5064 -67.4813
rradius 36.2302
rwrist 19.6737
rhand -26.7138 33.5259
rfingers 7.12502
rthumb -0.143624 3.54621
lclavicle -1.3418e-015 -1.63003e-014
lhumerus -41.2948 22.2175 65.0619
lradius 35.0788
lwrist -20.7163
lhand -12.8529 24.5432
lfingers 7.12502
lthumb 13.235 54.103
rfemur -6.55699 12.1351 11.2678
rtibia 11.2362
rfoot -9.79874 -12.4009
rtoes -4.88247
lfemur -3.61822 1.47266 -20.5855
ltibia 12.0269
lfoot -15.2394 8.80817
ltoes 12.3169
208
root 13.4548 18.7845 5.6777 208.893 -84.865 -201.075
lowerback -0.861906 -2.08945 -3.82415
upperback -1.2846 -2.79464 -0.472573
thorax -0.677048 -1.37537 1.64413
lowerneck -4.65495 -12.2782 -13.143
upperneck 11.2572 -18.5632 18.3237
head 7.19315 -8.76805 6.22071
rclavicle 1.93815e-015 -1.45113e-014
rhumerus -39.655 -19.4642 -67.3149
rradius 36.0464
rwrist 19.8411
rhand -26.5428 33.0561
rfingers 7.12502
rthumb 0.0215133 3.07637
lclavicle 1.93815e-015 -1.45113e-014
lhumerus -41.1538 22.2594 65.4142
lradius 34.9344
lwrist -20.6911
lhand -12.8602 24.8358
lfingers 7.12502
lthumb 13.228 54.3961
rfemur -6.66056 12.2585 11.42
rtibia 11.2096
rfoot -9.55478 -12.4569
rtoes -5.97818
lfemur -3.72497 1.62719 -20.5629
ltibia 12.0607
lfoot -14.803 9.56656
ltoes 8.40918
209
root 13.4439 18.7844 5.68188 208.204 -85.1785 -200.435
lowerback -0.932401 -2.16599 -3.54605
upperback -1.29259 -2.89241 -0.350537
thorax -0.64715 -1.42581 1.61052
lowerneck -5.19682 -11.8504 -12.7408
upperneck 11.541 -17.8916 17.8737
head 7.18099 -8.41138 6.08206
rclavicle 2.44505e-014 1.39149e-014
rhumerus -39.7215 -19.3163 -67.243
rradius 36.0195
rwrist 19.7735
rhand -25.9786 33.349
rfingers 7.12502
rthumb 0.566443 3.37001
lclavicle 2.44505e-014 1.39149e-014
lhumerus -41.0559 22.521 65.5846
lradius 34.6954
lwrist -20.941
lhand -12.7127 24.7077
lfingers 7.12502
lthumb 13.3701 54.2587
rfemur -6.61053 11.8131 11.7116
rtibia 11.3818
rfoot -9.4362 -12.4909
rtoes -7.19233
lfemur -3.55543 0.727109 -20.3861
ltibia 11.9834
lfoot -14.876 10.0127
ltoes 10.0287
210
root 13.4347 18.7826 5.68535 207.345 -85.547 -199.532
lowerback -1.06573 -2.22632 -3.20265
upperback -1.35089 -2.96888 -0.227869
thorax -0.638527 -1.46559 1.53982
lowerneck -5.47158 -11.4501 -12.1729
upperneck 11.6031 -17.2038 17.1346
head 7.01132 -8.07483 5.83998
rclavicle -2.09469e-014 -7.15625e-015
rhumerus -39.9524 -19.3253 -67.1285
rradius 35.731
rwrist 19.6932
rhand -26.1318 33.7038
rfingers 7.12502
rthumb 0.418452 3.72443
lclavicle -2.09469e-014 -7.15625e-015
lhumerus -40.9095 23.1238 65.6599
lradius 34.26
lwrist -21.6294
lhand -12.6886 24.3669
lfingers 7.12502
lthumb 13.3934 53.9164
rfemur -6.63164 11.5802 11.9959
rtibia 11.542
rfoot -9.45781 -12.5407
rtoes -6.35018
lfemur -3.53408 0.120268 -20.15
ltibia 11.8768
lfoot -14.9251 10.0856
ltoes 11.6615
211
root 13.4329 18.7796 5.68113 207.316 -85.6378 -199.392
lowerback -1.18136 -2.23333 -3.08985
upperback -1.45393 -2.97734 -0.174629
thorax -0.681867 -1.46927 1.52906
lowerneck -6.00253 -11.0003 -11.6834
upperneck 12.1206 -16.4899 16.3238
head 7.03791 -7.70928 5.57206
rclavicle 7.96381e-015 1.59028e-014
rhumerus -40.2343 -19.4481 -67.0537
rradius 35.4415
rwrist 19.8381
rhand -26.9746 33.853
rfingers 7.12502
rthumb -0.395528 3.87364
lclavicle 7.96381e-015 1.59028e-014
lhumerus -40.759 23.7996 65.6258
lradius 33.7135
lwrist -22.5098
lhand -12.9609 24.2881
lfingers 7.12502
lthumb 13.1308 53.8547
rfemur -6.77739 11.7963 12.0429
rtibia 11.6366
rfoot -9.59951 -12.7763
rtoes -5.51396
lfemur -3.66391 -0.10438 -20.1136
ltibia 11.7864
lfoot -14.9837 10.3601
ltoes 11.7853
212
root 13.4324 18.78 5.68123 208.532 -85.7505 -200.553
lowerback -1.20255 -2.24219 -2.9849
upperback -1.55196 -2.99264 -0.207991
thorax -0.776832 -1.47628 1.43803
lowerneck -6.50081 -10.4445 -11.398
upperneck 12.7347 -15.7166 15.9306
head 7.14578 -7.30742 5.48058
rclavicle -2.70596e-014 -1.15295e-014
rhumerus -40.6386 -19.7423 -66.9577
rradius 35.4839
rwrist 19.874
rhand -26.8262 34.2046
rfingers 7.12502
rthumb -0.252199 4.22499
lclavicle -2.70596e-014 -1.15295e-014
lhumerus -40.6944 23.6771 65.739
lradius 33.473
lwrist -22.8036
lhand -13.0551 24.2673
lfingers 7.12502
lthumb 13.0401 53.8397
rfemur -6.89898 11.714 12.0107
rtibia 11.8095
rfoot -9.69904 -12.9791
rtoes -5.8698
lfemur -3.70887 -0.100289 -20.1674
ltibia 11.6374
lfoot -14.7773 10.5266
ltoes 10.621
213
root 13.4292 18.7858 5.67907 209.903 -85.8821 -201.814
lowerback -1.32098 -2.22305 -2.94077
upperback -1.63333 -2.96634 -0.222185
thorax -0.798199 -1.4632 1.39625
lowerneck -6.76503 -9.89482 -10.6606
upperneck 12.9478 -14.9141 15.2982
head 7.03137 -6.90715 5.25367
rclavicle 8.08805e-015 4.57205e-015
rhumerus -41.0673 -20.3407 -66.6908
rradius 35.5356
rwrist 20.1073
rhand -26.3012 34.1146
rfingers 7.12502
rthumb 0.254871 4.13502
lclavicle 8.08805e-015 4.57205e-015
lhumerus -40.598 23.1524 66.0634
lradius 33.42
lwrist -22.7833
lhand -13.0505 24.3038
lfingers 7.12502
lthumb 13.0445 53.876
rfemur -6.9972 11.6457 11.9861
rtibia 11.8647
rfoot -9.64455 -13.2529
rtoes -6.13084
lfemur -3.84535 0.456192 -20.163
ltibia 11.5676
lfoot -14.7014 9.87401
ltoes 11.7537
